<svg width="65" height="65" viewBox="0 0 65 65" fill="none" xmlns="http://www.w3.org/2000/svg">
<circle cx="32.5" cy="32.5" r="32.5" fill="url(#paint0_linear_16_1016)"/>
<path d="M21.7 24.8998C23.1 28.7998 24.6 32.6998 26 36.5998C31.8 36.5998 37.5 36.5998 43.3 36.6998C44.7 32.6998 46.2 28.7998 47.6 24.7998C39 24.7998 30.4 24.7998 21.7 24.8998Z" stroke="white" stroke-width="1.5" stroke-miterlimit="10" stroke-linecap="round" stroke-linejoin="round"/>
<path d="M43.6999 40.6999C38.1999 40.6999 32.7999 40.6999 27.2999 40.6999C26.9999 40.4999 26.4999 40.0999 26.0999 39.2999C25.5999 38.0999 25.9999 37.0999 26.0999 36.8999" stroke="white" stroke-width="1.5" stroke-miterlimit="10" stroke-linecap="round" stroke-linejoin="round"/>
<path d="M28.3 46.7001C29.2941 46.7001 30.1 45.8942 30.1 44.9001C30.1 43.906 29.2941 43.1001 28.3 43.1001C27.3059 43.1001 26.5 43.906 26.5 44.9001C26.5 45.8942 27.3059 46.7001 28.3 46.7001Z" stroke="#FFAA1D" stroke-width="1.5" stroke-miterlimit="10" stroke-linecap="round" stroke-linejoin="round"/>
<path d="M41.1 46.7001C42.0942 46.7001 42.9 45.8942 42.9 44.9001C42.9 43.906 42.0942 43.1001 41.1 43.1001C40.1059 43.1001 39.3 43.906 39.3 44.9001C39.3 45.8942 40.1059 46.7001 41.1 46.7001Z" stroke="white" stroke-width="1.5" stroke-miterlimit="10" stroke-linecap="round" stroke-linejoin="round"/>
<path d="M18 19C18.9 19 19.9 19 20.8 19C20.9 20.5 21 22 21.1 23.6C21.3 24.1 21.6 24.6 21.8 25.2" stroke="white" stroke-width="1.5" stroke-miterlimit="10" stroke-linecap="round" stroke-linejoin="round"/>
<path d="M38.8003 24.7998C41.8003 24.7998 44.7003 24.7998 47.7003 24.7998C46.8003 27.1998 45.9003 29.5998 45.1003 31.9998" stroke="#FFAA1D" stroke-width="1.5" stroke-miterlimit="10" stroke-linecap="round" stroke-linejoin="round"/>
<defs>
<linearGradient id="paint0_linear_16_1016" x1="62.8139" y1="5.41665" x2="-1.3172" y2="10.0124" gradientUnits="userSpaceOnUse">
<stop stop-color="#02A3FF"/>
<stop offset="1" stop-color="#2A84E9"/>
</linearGradient>
</defs>
</svg>
