<svg width="65" height="65" viewBox="0 0 65 65" fill="none" xmlns="http://www.w3.org/2000/svg">
<circle cx="32.5" cy="32.5" r="32.5" fill="url(#paint0_linear_16_1012)"/>
<path d="M28.0915 49.6C28.0915 47.9 27.9915 46.2 27.9915 44.4C27.3915 44.2 26.3915 43.8 25.5915 43C25.1915 42.6 24.3915 41.8 23.6915 39.5C23.2915 38.2 22.7915 36 23.0915 33.1C23.1915 32.8 23.5915 32.3 24.2915 31.9C25.3915 31.3 26.4915 31.7 26.6915 31.8" stroke="white" stroke-miterlimit="10" stroke-linecap="round" stroke-linejoin="round"/>
<path d="M25.1915 23.2C24.9915 22.8 24.2915 21.4 24.5915 19.8C24.9915 17.5 27.1915 16 29.2915 16C31.1915 16 33.1915 17.2 33.7915 19.4C34.2915 21.2 33.5915 22.8 33.3915 23.2" stroke="#FFAA1D" stroke-miterlimit="10" stroke-linecap="round" stroke-linejoin="round"/>
<path d="M27.9915 44.5001C27.3915 44.3001 26.3915 43.9001 25.5915 43.1001C25.1915 42.7001 24.3915 41.9001 23.6915 39.6001C23.2915 38.3001 22.7915 36.1001 23.0915 33.2001C23.1915 32.9001 23.5915 32.4001 24.2915 32.0001C25.3915 31.4001 26.4915 31.8001 26.6915 31.9001" stroke="#FFAA1D" stroke-miterlimit="10" stroke-linecap="round" stroke-linejoin="round"/>
<path d="M27.2915 37.2C27.2915 31.8 27.2915 26.4 27.2915 20.9C27.3915 20.7 27.4915 20.5 27.6915 20.3C27.8915 20.1 28.3915 19.5 29.1915 19.5C30.1915 19.5 30.8915 20.3 30.9915 20.5C31.0915 20.6 31.1915 20.8 31.1915 20.9C31.1915 25.5 31.2915 30.2 31.2915 34.9C31.2915 34.9 31.2915 35.1 31.2915 35.2" stroke="white" stroke-miterlimit="10" stroke-linecap="round" stroke-linejoin="round"/>
<path d="M31.2915 28.9998C31.5915 28.2998 32.2915 27.7998 33.0915 27.7998C33.8915 27.7998 34.5915 28.1998 34.9915 28.8998C34.9915 30.8998 34.9915 32.8998 34.9915 34.9998" stroke="white" stroke-miterlimit="10" stroke-linecap="round" stroke-linejoin="round"/>
<path d="M31.2915 28.9998C31.5915 28.2998 32.2915 27.7998 33.0915 27.7998C33.8915 27.7998 34.5915 28.1998 34.9915 28.8998" stroke="#FFAA1D" stroke-miterlimit="10" stroke-linecap="round" stroke-linejoin="round"/>
<path d="M34.9915 29.6C35.2915 29 36.0915 28.5 36.8915 28.5C37.6915 28.5 38.4915 28.9 38.8915 29.5C38.8915 31.3 38.8915 33.1 38.8915 35" stroke="white" stroke-miterlimit="10" stroke-linecap="round" stroke-linejoin="round"/>
<path d="M38.9915 30.9999C39.2915 30.3999 39.9915 29.8999 40.7915 29.8999C41.5915 29.8999 42.2915 30.1999 42.6915 30.8999C42.6915 32.6999 42.6915 34.4999 42.6915 36.2999C42.6915 36.8999 42.6915 38.4999 42.6915 39.0999C42.6915 39.2999 42.5915 39.4999 42.5915 39.7999C42.0915 41.7999 41.0915 43.2999 40.0915 44.3999C40.0915 46.1999 40.0915 47.8999 40.0915 49.6999" stroke="white" stroke-miterlimit="10" stroke-linecap="round" stroke-linejoin="round"/>
<defs>
<linearGradient id="paint0_linear_16_1012" x1="62.8139" y1="5.41665" x2="-1.3172" y2="10.0124" gradientUnits="userSpaceOnUse">
<stop stop-color="#02A3FF"/>
<stop offset="1" stop-color="#2A84E9"/>
</linearGradient>
</defs>
</svg>
