<svg width="65" height="65" viewBox="0 0 65 65" fill="none" xmlns="http://www.w3.org/2000/svg">
<circle cx="32.5" cy="32.5" r="32.5" fill="url(#paint0_linear_16_1013)"/>
<path d="M15.998 45.75H47.2546H49.0018" stroke="white" stroke-width="1.5" stroke-miterlimit="10" stroke-linecap="round" stroke-linejoin="round"/>
<path d="M19.5 45.4999V40.8999H24.3V45.4999" stroke="white" stroke-width="1.5" stroke-miterlimit="10" stroke-linecap="round" stroke-linejoin="round"/>
<path d="M26.4 45.4998L26.2 31.2998H31V45.4998" stroke="white" stroke-width="1.5" stroke-miterlimit="10" stroke-linecap="round" stroke-linejoin="round"/>
<path d="M32.9004 45.5002V34.2002H37.7004V45.5002" stroke="white" stroke-width="1.5" stroke-miterlimit="10" stroke-linecap="round" stroke-linejoin="round"/>
<path d="M39.5996 45.5V26.5H44.3996V45.5" stroke="white" stroke-width="1.5" stroke-miterlimit="10" stroke-linecap="round" stroke-linejoin="round"/>
<path d="M19.2998 29.4L26.0998 21.7L31.7998 28.4L45.2998 15V17.9" stroke="white" stroke-width="1.5" stroke-miterlimit="10" stroke-linecap="round" stroke-linejoin="round"/>
<path d="M45.2999 15H42.3999" stroke="white" stroke-width="1.5" stroke-miterlimit="10" stroke-linecap="round" stroke-linejoin="round"/>
<path d="M22.6001 25.6002C23.7001 24.3002 24.9001 23.0002 26.0001 21.7002C27.9001 23.9002 29.8001 26.2002 31.8001 28.4002C33.3001 26.9002 34.9001 25.3002 36.4001 23.8002" stroke="#FFAA1D" stroke-width="1.5" stroke-miterlimit="10" stroke-linecap="round" stroke-linejoin="round"/>
<path d="M26.1997 34.0998C26.1997 33.1998 26.1997 32.1998 26.1997 31.2998C27.7997 31.2998 29.3997 31.2998 30.9997 31.2998C30.9997 32.1998 30.9997 33.0998 30.9997 33.9998" stroke="#FFAA1D" stroke-width="1.5" stroke-miterlimit="10" stroke-linecap="round" stroke-linejoin="round"/>
<defs>
<linearGradient id="paint0_linear_16_1013" x1="62.8139" y1="5.41665" x2="-1.3172" y2="10.0124" gradientUnits="userSpaceOnUse">
<stop stop-color="#02A3FF"/>
<stop offset="1" stop-color="#2A84E9"/>
</linearGradient>
</defs>
</svg>
