<svg width="65" height="65" viewBox="0 0 65 65" fill="none" xmlns="http://www.w3.org/2000/svg">
<circle cx="32.5" cy="32.5" r="32.5" fill="url(#paint0_linear_16_1017)"/>
<path d="M32.9187 21C30.0187 21 27.6187 23.4 27.6187 26.3C27.6187 29.2 30.0187 31.6 32.9187 31.6C35.8187 31.6 38.2187 29.2 38.2187 26.3C38.2187 23.4 35.8187 21 32.9187 21ZM32.9187 29.9C30.9187 29.9 29.4187 28.3 29.4187 26.4C29.4187 24.5 31.0187 22.9 32.9187 22.9C34.8187 22.9 36.4187 24.5 36.4187 26.4C36.4187 28.3 34.9187 29.9 32.9187 29.9Z" fill="#F49F08"/>
<path d="M36.5553 32.5H36.3511L36.147 32.6C34.1054 33.6 31.7575 33.6 29.818 32.6L29.6139 32.5H29.4097C26.9598 32.5 25.2188 34.5 25.2188 36.9V42.2C25.2188 43.7 26.1431 44.9 27.5723 44.9H38.2907C39.7198 44.9 40.7146 43.7 40.7146 42.2V36.9C40.8167 34.5 39.0052 32.5 36.5553 32.5ZM39.1116 42.2C39.1116 42.7 38.8011 43.1 38.2907 43.1H27.5723C27.0619 43.1 26.6535 42.7 26.6535 42.2V36.9C26.6535 35.5 27.7764 34.3 29.1035 34.3C31.4513 35.4 34.2075 35.4 36.6574 34.3C38.0865 34.4 39.1073 35.6 39.1073 36.9L39.1116 42.2Z" fill="white"/>
<path d="M20.2187 26.1001C18.3021 26.1001 16.7188 27.6834 16.7188 29.6001C16.7188 31.5168 18.3021 33.1001 20.2187 33.1001C22.1354 33.1001 23.7188 31.5168 23.7188 29.6001C23.7188 27.6834 22.1354 26.1001 20.2187 26.1001ZM20.2187 31.9334C18.9687 31.9334 17.8854 30.8501 17.8854 29.6001C17.8854 28.3501 18.9687 27.2668 20.2187 27.2668C21.4687 27.2668 22.5521 28.3501 22.5521 29.6001C22.5521 30.8501 21.4687 31.9334 20.2187 31.9334Z" fill="white"/>
<path d="M45.7188 26.0332C43.8021 26.0332 42.2188 27.6165 42.2188 29.5332C42.2188 31.4498 43.8021 33.0332 45.7188 33.0332C47.6354 33.0332 49.2188 31.4498 49.2188 29.5332C49.2188 27.6165 47.6354 26.0332 45.7188 26.0332ZM45.7188 31.8665C44.4688 31.8665 43.3854 30.7832 43.3854 29.5332C43.3854 28.2832 44.4688 27.1998 45.7188 27.1998C46.9688 27.1998 48.0521 28.2832 48.0521 29.5332C48.0521 30.7832 46.9688 31.8665 45.7188 31.8665Z" fill="white"/>
<path d="M23.1 33.7998H22.9L22.8 33.8998C21.2 34.6998 19.4 34.6998 17.8 33.8998H17.5C15.6 33.8998 14 35.3998 14 37.2998V41.4998C14 42.6998 14.9 43.5998 16.1 43.5998H24.5C25.7 43.5998 26.2188 42.6998 26.2188 41.4998V37.2998C26.2188 35.3998 25 33.7998 23.1 33.7998ZM25 41.4998C25 41.8998 24.9 42.1998 24.5 42.1998H16.1C15.7 42.1998 15.4 41.8998 15.4 41.4998V37.2998C15.4 36.1998 16.5 35.2997 17.5 35.1997C19.4 36.0997 21.1 36.0997 23 35.1997C24.5 34.6997 25 35.5997 25 36.6997V41.4998Z" fill="white"/>
<path d="M14.7188 38.5526C14.7188 37.7294 14.7188 37.1722 14.7188 36.095C15.2239 35.4365 15.6163 34.768 17.1317 34.768C18.1419 34.7681 18.3439 35.1774 19.6572 35.2597C21.5767 35.4243 22.1828 34.4387 23.6982 34.768C24.2033 34.8503 25.1126 35.243 25.7188 36.1485C25.7188 36.9716 25.7188 37.8771 25.7188 38.7002" stroke="#F49F08" stroke-width="1.8" stroke-miterlimit="10" stroke-linecap="round" stroke-linejoin="round"/>
<path d="M48.8188 33.7002H48.6187L48.5187 33.8002C46.9187 34.6002 45.1187 34.6002 43.5187 33.8002H43.2188C41.3188 33.8002 39.7188 35.3002 39.7188 37.2002V41.4002C39.7188 42.6002 40.6188 43.5002 41.8188 43.5002H50.2188C51.4188 43.5002 51.9375 42.6002 51.9375 41.4002V37.2002C51.9375 35.3002 50.7188 33.7002 48.8188 33.7002ZM50.7188 41.4002C50.7188 41.8002 50.6188 42.1002 50.2188 42.1002H41.8188C41.4188 42.1002 41.1187 41.8002 41.1187 41.4002V37.2002C41.1187 36.1002 42.2188 35.2001 43.2188 35.1001C45.1187 36.0001 46.8188 36.0001 48.7188 35.1001C50.2188 34.6001 50.7188 35.5001 50.7188 36.6001V41.4002Z" fill="white"/>
<path d="M40.4375 38.452C40.4375 37.6288 40.4375 37.0716 40.4375 35.9944C40.9426 35.3359 41.3351 34.6674 42.8504 34.6674C43.8606 34.6675 44.0627 35.0768 45.376 35.1591C47.2954 35.3238 47.9016 34.3382 49.4169 34.6674C49.9221 34.7497 50.8314 35.1424 51.4375 36.0479C51.4375 36.871 51.4375 37.7765 51.4375 38.5996" stroke="#F49F08" stroke-width="1.8" stroke-miterlimit="10" stroke-linecap="round" stroke-linejoin="round"/>
<defs>
<linearGradient id="paint0_linear_16_1017" x1="62.8139" y1="5.41665" x2="-1.3172" y2="10.0124" gradientUnits="userSpaceOnUse">
<stop stop-color="#02A3FF"/>
<stop offset="1" stop-color="#2A84E9"/>
</linearGradient>
</defs>
</svg>
