<svg width="65" height="65" viewBox="0 0 65 65" fill="none" xmlns="http://www.w3.org/2000/svg">
<circle cx="32.5" cy="32.5" r="32.5" fill="url(#paint0_linear_16_1014)"/>
<path d="M33.5001 34.9167C33.3001 34.7167 33 34.7167 32.7 34.9167L26.4 41.2167C26.2 41.4167 25.9 41.4167 25.6 41.2167C25.4 41.0167 25.4 40.7167 25.6 40.4167L39.7 26.3167C39.8 26.2167 39.9 26.1167 40.1 26.1167C40.2 26.1167 40.4001 26.2167 40.5001 26.3167C40.7001 26.5167 40.7001 26.8167 40.5001 27.1167L34.2 33.4167C34 33.6167 34 33.9167 34.2 34.2167C34.4 34.4167 34.7001 34.4167 35.0001 34.2167L41.3001 27.9167C41.9001 27.3167 41.9001 26.3167 41.3001 25.6167C41.0001 25.3167 40.6 25.1167 40.2 25.1167C39.8 25.1167 39.4 25.3167 39.1 25.6167L25 39.7167C24.4 40.3167 24.4 41.3167 25 42.0167C25.3 42.3167 25.7 42.5167 26.1 42.5167C26.5 42.5167 26.9 42.3167 27.2 42.0167L33.5001 35.7167C33.5001 35.7167 33.7 35.5167 33.7 35.3167C33.6 35.1167 33.5001 34.9167 33.5001 34.9167Z" fill="white"/>
<path d="M38.4001 34.3169C35.7001 34.3169 33.6001 36.5169 33.6001 39.1169C33.6001 41.8169 35.8001 43.9169 38.4001 43.9169C41.1001 43.9169 43.2001 41.7169 43.2001 39.1169C43.2001 36.4169 41.0001 34.3169 38.4001 34.3169ZM38.4001 42.8169C36.3001 42.8169 34.7001 41.1169 34.7001 39.1169C34.7001 37.0169 36.4001 35.4169 38.4001 35.4169C40.5001 35.4169 42.1001 37.1169 42.1001 39.1169C42.1001 41.1169 40.5001 42.8169 38.4001 42.8169Z" fill="white"/>
<path d="M38.4 36.417C36.9 36.417 35.7 37.617 35.7 39.117C35.7 40.617 36.9 41.817 38.4 41.817C39.9 41.817 41.1 40.617 41.1 39.117C41.1 37.617 39.9 36.417 38.4 36.417ZM38.4 40.717C37.5 40.717 36.8 40.017 36.8 39.117C36.8 38.217 37.5 37.517 38.4 37.517C39.3 37.517 40 38.217 40 39.117C40 40.017 39.3 40.717 38.4 40.717Z" fill="white"/>
<path d="M32.6 28.5168C32.6 25.8168 30.4 23.7168 27.8 23.7168C25.2 23.7168 23 25.9168 23 28.5168C23 31.1168 25.2 33.3168 27.8 33.3168C30.4 33.3168 32.6 31.1168 32.6 28.5168ZM24.1 28.5168C24.1 26.4168 25.8 24.8168 27.8 24.8168C29.8 24.8168 31.5 26.5168 31.5 28.5168C31.5 30.5168 29.8 32.2168 27.8 32.2168C25.8 32.2168 24.1 30.6168 24.1 28.5168Z" fill="white"/>
<path d="M30.5001 28.5169C30.5001 27.0169 29.3001 25.8169 27.8001 25.8169C26.3001 25.8169 25.1001 27.0169 25.1001 28.5169C25.1001 30.0169 26.3001 31.2169 27.8001 31.2169C29.3001 31.2169 30.5001 30.0169 30.5001 28.5169ZM26.2001 28.5169C26.2001 27.6169 26.9001 26.9169 27.8001 26.9169C28.7001 26.9169 29.4001 27.6169 29.4001 28.5169C29.4001 29.4169 28.7001 30.1169 27.8001 30.1169C26.9001 30.1169 26.2001 29.4169 26.2001 28.5169Z" fill="white"/>
<path d="M39.8999 15.1166C39.8999 15.7166 40.4999 16.2166 40.8999 16.6166C41.4999 17.2166 42.1999 17.9166 42.7999 18.5166C44.2999 20.0166 45.6999 21.4166 47.1999 22.9166C47.4999 23.2166 47.8999 23.6166 48.1999 23.9166C49.1999 24.9166 50.7999 23.3166 49.7999 22.3166C47.4999 20.0166 45.0999 17.6166 42.7999 15.3166C42.4999 15.0166 42.0999 14.6166 41.7999 14.3166C41.8999 14.6166 41.9999 14.8166 42.0999 15.1166C42.0999 14.5166 41.5999 14.0166 40.9999 14.0166C40.3999 14.0166 39.8999 14.5166 39.8999 15.1166Z" fill="#FFAA1D"/>
<path d="M48.1999 14.3166C45.8999 16.6166 43.4999 19.0166 41.1999 21.3166C40.8999 21.6166 40.4999 22.0166 40.1999 22.3166C39.1999 23.3166 40.7999 24.9166 41.7999 23.9166C44.0999 21.6166 46.4999 19.2166 48.7999 16.9166C49.0999 16.6166 49.4999 16.2166 49.7999 15.9166C50.7999 14.9166 49.2999 13.3166 48.1999 14.3166Z" fill="#FFAA1D"/>
<path d="M31.6999 33.6167C29.4999 35.8167 27.3999 37.9167 25.1999 40.1167C24.7999 40.6167 24.8999 41.3167 25.3999 41.7167C25.7999 42.0167 26.4999 41.9167 26.8999 41.5167C28.9999 39.4167 30.9999 37.3167 33.0999 35.2167" stroke="#FFAA1D" stroke-width="1.12" stroke-miterlimit="10" stroke-linecap="round" stroke-linejoin="round"/>
<defs>
<linearGradient id="paint0_linear_16_1014" x1="62.8139" y1="5.41665" x2="-1.3172" y2="10.0124" gradientUnits="userSpaceOnUse">
<stop stop-color="#02A3FF"/>
<stop offset="1" stop-color="#2A84E9"/>
</linearGradient>
</defs>
</svg>
