<svg width="65" height="65" viewBox="0 0 65 65" fill="none" xmlns="http://www.w3.org/2000/svg">
<circle cx="32.5" cy="32.5" r="32.5" fill="url(#paint0_linear_16_1015)"/>
<path d="M45.3 27.6377C43.4 27.6377 41.8 29.1377 41.8 31.1377C41.8 33.0377 43.3 34.6377 45.3 34.6377C47.3 34.6377 48.8 33.1377 48.8 31.1377C48.7 29.1377 47.2 27.6377 45.3 27.6377ZM45.3 33.4377C44 33.4377 43 32.4377 43 31.1377C43 29.8377 44 28.8377 45.3 28.8377C46.6 28.8377 47.6 29.8377 47.6 31.1377C47.6 32.3377 46.5 33.4377 45.3 33.4377Z" fill="#FFAA1D"/>
<path d="M47.6001 35.1377H47.5001L47.4001 35.2377C46.1001 35.8377 44.6001 35.8377 43.3001 35.2377L43.2001 35.1377H43.0001C41.4001 35.1377 40.1001 36.4377 40.1001 38.0377V41.5377C40.1001 42.5377 40.9001 43.2377 41.8001 43.2377H48.7001C49.7001 43.2377 50.4001 42.4377 50.4001 41.5377V38.0377C50.4001 36.4377 49.2001 35.1377 47.6001 35.1377ZM49.3001 41.4377C49.3001 41.7377 49.0001 42.0377 48.7001 42.0377H41.8001C41.5001 42.0377 41.2001 41.7377 41.2001 41.4377V37.9377C41.2001 37.0377 41.9001 36.2377 42.8001 36.2377C44.3001 36.9377 46.1001 36.9377 47.6001 36.2377C48.5001 36.3377 49.2001 37.0377 49.2001 37.9377V41.4377H49.3001Z" fill="white"/>
<path d="M21.1001 27.6377C19.2001 27.6377 17.6001 29.1377 17.6001 31.1377C17.6001 33.0377 19.1001 34.6377 21.1001 34.6377C23.1001 34.6377 24.6001 33.1377 24.6001 31.1377C24.5001 29.1377 23.0001 27.6377 21.1001 27.6377ZM21.1001 33.4377C19.8001 33.4377 18.8001 32.4377 18.8001 31.1377C18.8001 29.8377 19.8001 28.8377 21.1001 28.8377C22.4001 28.8377 23.4001 29.8377 23.4001 31.1377C23.4001 32.3377 22.4001 33.4377 21.1001 33.4377Z" fill="white"/>
<path d="M23.4 35.1377H23.3L23.2 35.2377C21.9 35.8377 20.4 35.8377 19.1 35.2377L19 35.1377H18.9C17.3 35.1377 16 36.4377 16 38.0377V41.5377C16 42.5377 16.8 43.2377 17.7 43.2377H24.6C25.6 43.2377 26.3 42.4377 26.3 41.5377V38.0377C26.3 36.4377 25 35.1377 23.4 35.1377ZM25.1 41.4377C25.1 41.7377 24.8 42.0377 24.5 42.0377H17.6C17.3 42.0377 17 41.7377 17 41.4377V37.9377C17 37.0377 17.7 36.2377 18.6 36.2377C20.1 36.9377 21.9 36.9377 23.4 36.2377C24.3 36.3377 25 37.0377 25 37.9377V41.4377H25.1Z" fill="white"/>
<path d="M38.9 37.8375C38.8 37.5375 38.4 37.4375 38.1 37.5375C35.5 38.6375 32.6 38.8375 29.9 38.1375L30.4 37.9375C30.7 37.8375 30.9 37.5375 30.8 37.2375C30.7 36.9375 30.4 36.7375 30.1 36.8375L27.8 37.5375C27.7 37.5375 27.7 37.5375 27.7 37.6375C27.7 37.6375 27.7 37.6375 27.6 37.6375C27.5 37.7375 27.5 37.7375 27.5 37.8375C27.5 37.9375 27.5 38.0375 27.5 38.0375C27.5 38.1375 27.5 38.2375 27.6 38.2375L28.8 40.4375C28.9 40.7375 29.3 40.8375 29.6 40.6375C29.9 40.5375 30 40.1375 29.8 39.8375L29.3 38.9375C32.4 39.8375 35.7 39.6375 38.7 38.4375C38.9 38.5375 39 38.1375 38.9 37.8375Z" fill="white"/>
<path d="M40.7999 25.5377C40.8999 25.5377 40.8999 25.5377 40.7999 25.5377C40.8999 25.5377 40.8999 25.5377 40.7999 25.5377C40.8999 25.5377 40.8999 25.5377 40.7999 25.5377C40.8999 25.4377 40.8999 25.4377 40.8999 25.3377V25.2377V25.1377V25.0377L40.5999 22.5377C40.5999 22.2377 40.2999 22.0377 39.8999 22.0377C39.5999 22.0377 39.3999 22.3377 39.3999 22.6377L39.4999 23.9377C35.0999 21.3377 29.6999 21.3377 25.2999 24.0377C24.9999 24.2377 24.8999 24.5377 25.0999 24.8377C25.2999 25.1377 25.5999 25.2377 25.8999 25.0377C29.6999 22.7377 34.4999 22.6377 38.4999 24.7377L37.4999 24.8377C37.1999 24.8377 36.9999 25.1377 36.9999 25.4377C36.9999 25.5377 36.9999 25.6377 37.0999 25.6377C37.1999 25.8377 37.3999 25.9377 37.5999 25.9377L40.2999 25.6377H40.3999C40.6999 25.6377 40.6999 25.6377 40.7999 25.5377C40.7999 25.6377 40.7999 25.6377 40.7999 25.5377Z" fill="#FFAA1D"/>
<path d="M16.5 39.6377C16.5 38.8377 16.5 37.9377 16.6 37.1377C17 36.5377 17.7 35.8377 18.6 35.7377C19.5 35.6377 19.7 36.2377 20.8 36.3377C22.4 36.5377 23 35.4377 24.2 35.7377C24.6 35.8377 25.2 36.1377 25.7 37.0377C25.7 37.8377 25.7 38.6377 25.8 39.5377" stroke="#FFAA1D" stroke-width="1.3" stroke-miterlimit="10" stroke-linecap="round" stroke-linejoin="round"/>
<defs>
<linearGradient id="paint0_linear_16_1015" x1="62.8139" y1="5.41665" x2="-1.3172" y2="10.0124" gradientUnits="userSpaceOnUse">
<stop stop-color="#02A3FF"/>
<stop offset="1" stop-color="#2A84E9"/>
</linearGradient>
</defs>
</svg>
