<svg width="194" height="25" viewBox="0 0 194 25" fill="none" xmlns="http://www.w3.org/2000/svg">
<path fill-rule="evenodd" clip-rule="evenodd" d="M42.0241 4.59961C40.4203 4.59961 39.0671 4.85948 37.9144 5.2493L38.1399 7.71811C39.1924 7.3283 40.295 7.1204 41.3475 7.1204C45.0813 7.1204 46.0586 9.48526 46.3092 10.9925H40.0444V13.5393H46.3092C46.2591 15.9302 44.7305 17.8532 41.6733 17.8532C40.8964 17.8532 39.5683 17.7493 38.0647 17.0996L39.2175 20.1402C40.0194 20.3221 40.7962 20.4 41.573 20.4C46.635 20.4 49.5168 17.1776 49.5168 12.2659C49.5168 7.48422 46.4846 4.59961 42.0241 4.59961ZM53.5513 13.1755H55.4307C57.1097 13.1755 58.087 13.9291 58.087 15.4884C58.087 17.0476 57.1097 17.8013 55.4307 17.8013H53.5513V13.1755ZM50.5442 4.78152V20.2181H55.982C60.242 20.2181 61.2945 17.3595 61.2945 15.7223C61.2945 13.7212 60.3673 10.7327 55.982 10.7327H53.5513V7.51021H60.0666V4.78152H50.5442ZM28.2917 14.215L30.3465 7.90002H30.3967L32.5768 14.215H28.2917ZM28.7929 4.78152L22.8539 20.2181H26.0865L27.3395 16.7618H33.4789L34.7319 20.2181H38.1399L32.226 4.78152H28.7929Z" fill="white"/>
<path fill-rule="evenodd" clip-rule="evenodd" d="M11.3015 13.332L10.5498 14.1116L11.0509 15.359L12.5044 13.8517L11.3015 13.332ZM10.2992 14.2415H9.24668L8.7455 15.4889H10.7753L10.2992 14.2415ZM11.4268 11.9546V13.0461L12.6046 13.5659V11.4609L11.4268 11.9546ZM8.94598 14.1116L8.1942 13.332L7.01642 13.8517L8.46985 15.359L8.94598 14.1116ZM11.0509 9.66773L10.5498 10.9151L11.3015 11.6948L12.5044 11.175L11.0509 9.66773ZM9.24668 10.7852H10.2992L10.8003 9.56378H8.77056L9.24668 10.7852ZM8.09397 13.0461V11.9546L6.91619 11.4349V13.5399L8.09397 13.0461ZM8.21926 11.6688L8.97103 10.8891L8.46985 9.64174L7.01642 11.149L8.21926 11.6688ZM8.99609 8.73218H16.1881C16.4386 8.73218 16.6892 8.83613 16.8897 9.04403C17.0902 9.25193 17.1904 9.5118 17.1904 9.77168C17.1904 10.0316 17.0902 10.2914 16.8897 10.4993L18.5436 12.2145C19.1951 11.5388 19.5209 10.6553 19.5209 9.77168C19.5209 8.8881 19.1951 8.00453 18.5436 7.35484C17.8921 6.67916 17.0401 6.34132 16.2131 6.34132H11.3266L8.99609 8.73218ZM11.8027 9.27792L16.8897 14.5534C17.0651 14.7353 17.1904 14.9952 17.1904 15.281C17.1904 15.5669 17.0902 15.8268 16.8897 16.0087C16.7143 16.1906 16.4637 16.2945 16.1881 16.2945V18.7114C17.0902 18.7114 17.9422 18.3216 18.5185 17.6979C19.12 17.0742 19.4959 16.2166 19.4959 15.255C19.4959 14.3195 19.12 13.4359 18.5185 12.8122L15.0855 9.27792H11.8027ZM13.4065 11.7207V19.1792C13.4065 19.439 13.3063 19.6989 13.1058 19.9068C12.9053 20.1147 12.6547 20.1927 12.4041 20.1927C12.1535 20.1927 11.9029 20.0887 11.7025 19.9068L10.0486 21.622C10.7001 22.2977 11.5521 22.6355 12.4041 22.6355C13.2561 22.6355 14.1081 22.2977 14.7597 21.622C15.4112 20.9463 15.737 20.0627 15.737 19.1792V14.1376L13.4065 11.7207ZM12.8803 14.6054L7.7682 19.9068C7.59278 20.0887 7.34219 20.1927 7.06654 20.1927C6.79089 20.1927 6.56536 20.0887 6.36489 19.9068C6.18947 19.7249 6.06418 19.465 6.06418 19.1792H3.75874C3.75874 20.1407 4.13463 20.9983 4.73605 21.622C5.33747 22.2457 6.16442 22.6355 7.06654 22.6355C7.99373 22.6355 8.82068 22.2457 9.4221 21.622L12.8552 18.0617V14.6054H12.8803ZM10.5247 16.2686H3.33274C3.08215 16.2686 2.83156 16.1646 2.63108 15.9827C2.43061 15.7748 2.33037 15.5149 2.33037 15.255C2.33037 14.9952 2.43061 14.7353 2.63108 14.5274L0.977183 12.8122C0.325646 13.4879 -0.00012207 14.3715 -0.00012207 15.2291C-0.00012207 16.1126 0.325646 16.9962 0.977183 17.6719C1.62872 18.3476 2.48073 18.6854 3.30768 18.6854H8.16914L10.5247 16.2686ZM7.71808 15.6968L2.63108 10.4214C2.45567 10.2395 2.33037 9.97958 2.33037 9.69371C2.33037 9.40785 2.43061 9.14798 2.63108 8.96606C2.8065 8.78415 3.05709 8.65421 3.33274 8.65421V6.23737C2.43061 6.23737 1.5786 6.62719 1.00224 7.25089C0.375764 7.90058 -0.00012207 8.75816 -0.00012207 9.69371C-0.00012207 10.6553 0.375764 11.5128 0.977183 12.1365L4.41028 15.6968H7.71808V15.6968ZM6.13936 13.306V5.82157C6.13936 5.5617 6.23959 5.30182 6.44007 5.09392C6.64054 4.88602 6.89113 4.80806 7.14172 4.78207C7.39231 4.78207 7.6429 4.88602 7.84337 5.09392L9.49728 3.37875C8.84574 2.70307 7.99373 2.36523 7.14172 2.36523C6.28971 2.36523 5.4377 2.70307 4.78617 3.37875C4.13463 4.05442 3.80886 4.938 3.80886 5.82157V10.8632L6.13936 13.306ZM6.64054 10.3954L11.7275 5.11991C11.9029 4.938 12.1535 4.83405 12.4292 4.83405C12.7048 4.83405 12.9304 4.938 13.1308 5.11991C13.3063 5.30182 13.4316 5.5617 13.4316 5.84756H15.762C15.762 4.88602 15.3862 4.02844 14.7847 3.40474C14.1833 2.78103 13.3564 2.39122 12.4542 2.39122C11.5271 2.39122 10.7001 2.78103 10.0987 3.40474L6.64054 6.96503V10.3954ZM10.3493 13.9557L11.1762 13.0981V11.8767L10.3493 11.0191H9.17151L8.34456 11.8767V13.0981L9.17151 13.9557H10.3493ZM8.46985 15.7228L6.64054 13.8257V11.175L8.46985 9.27792H11.0509L12.8803 11.175V13.8517L11.0509 15.7488H8.46985V15.7228Z" fill="white"/>
<path d="M69.9401 0H69.3888V25H69.9401V0Z" fill="white"/>
<path d="M193.551 0H193V25H193.551V0Z" fill="white"/>
<path d="M138.476 18.763C138.577 18.659 138.652 18.5551 138.702 18.4251C138.752 18.2952 138.777 18.1653 138.777 18.0353C138.777 17.7495 138.702 17.5156 138.552 17.3596C138.401 17.2037 138.226 17.0998 138 17.0738C137.775 17.0478 137.549 17.1258 137.324 17.3077C136.797 17.7235 136.246 18.0353 135.67 18.2692C135.093 18.5031 134.492 18.607 133.84 18.607C133.089 18.607 132.387 18.4511 131.735 18.1393C131.084 17.8274 130.508 17.4116 130.006 16.8399C129.505 16.2942 129.129 15.6445 128.829 14.9168C128.553 14.1892 128.403 13.4095 128.403 12.5779C128.403 11.7463 128.553 10.9667 128.829 10.2391C129.104 9.51141 129.505 8.86173 130.006 8.31599C130.508 7.77025 131.084 7.32846 131.735 7.01661C132.387 6.70476 133.089 6.54884 133.84 6.54884C134.667 6.54884 135.319 6.65279 135.82 6.88667C136.321 7.12056 136.797 7.43241 137.273 7.84821C137.499 8.03012 137.725 8.10809 137.975 8.0821C138.226 8.05611 138.426 7.97815 138.602 7.79624C138.777 7.64031 138.852 7.43241 138.852 7.17254C138.852 7.0426 138.852 6.96464 138.827 6.86069C138.802 6.78272 138.777 6.67877 138.702 6.60081C138.652 6.52285 138.577 6.44489 138.476 6.36692C137.775 5.76921 137.073 5.32742 136.371 5.06755C135.67 4.80767 134.843 4.67773 133.865 4.67773C132.838 4.67773 131.861 4.88563 130.984 5.27545C130.107 5.69125 129.33 6.23699 128.653 6.96464C128.002 7.6663 127.475 8.4979 127.1 9.45944C126.724 10.421 126.548 11.4345 126.548 12.526C126.548 13.6434 126.724 14.6829 127.1 15.6185C127.475 16.58 128.002 17.4116 128.653 18.1133C129.305 18.8149 130.082 19.3867 130.984 19.7765C131.886 20.1663 132.838 20.3742 133.865 20.3742C134.717 20.3742 135.544 20.2183 136.321 19.9324C137.073 19.7505 137.8 19.3347 138.476 18.763Z" fill="white"/>
<path d="M151.232 18.0353C151.633 17.3337 151.858 16.554 151.858 15.6445C151.858 14.6569 151.608 13.8513 151.107 13.2276C150.606 12.6039 149.929 12.1881 149.102 11.9802C149.678 11.6684 150.129 11.2786 150.48 10.7588C150.806 10.2391 150.981 9.66734 150.981 9.01765C150.981 8.21204 150.806 7.51037 150.43 6.88667C150.054 6.26297 149.553 5.7952 148.901 5.43137C148.25 5.09353 147.498 4.91162 146.646 4.91162H142.11C141.835 4.91162 141.609 5.01557 141.409 5.19748C141.208 5.3794 141.133 5.63927 141.133 5.92513V19.2307C141.133 19.5166 141.233 19.7505 141.409 19.9584C141.609 20.1663 141.835 20.2443 142.11 20.2443H147.047C147.999 20.2443 148.826 20.0364 149.578 19.6465C150.255 19.2827 150.806 18.737 151.232 18.0353ZM143.063 6.8347H146.596C147.323 6.8347 147.899 7.01661 148.375 7.38044C148.826 7.74426 149.077 8.29 149.077 9.04364C149.077 9.79728 148.851 10.343 148.375 10.7068C147.924 11.0707 147.323 11.2526 146.596 11.2526H143.063V6.8347ZM148.526 18.0873C148.075 18.2952 147.573 18.3991 146.997 18.3991H143.063V13.1237H146.997C147.573 13.1237 148.1 13.2276 148.526 13.4095C148.977 13.5915 149.302 13.8773 149.578 14.2411C149.829 14.605 149.954 15.0727 149.954 15.6445C149.954 16.2422 149.829 16.7619 149.578 17.1517C149.328 17.5675 148.977 17.8794 148.526 18.0873Z" fill="white"/>
<path d="M155.693 18.269C156.344 18.9707 157.146 19.5164 158.073 19.9062C159.001 20.296 160.003 20.4779 161.131 20.4779C162.233 20.4779 163.261 20.296 164.163 19.9062C165.09 19.5164 165.867 18.9707 166.543 18.269C167.22 17.5673 167.721 16.7357 168.097 15.7742C168.473 14.8126 168.648 13.7472 168.648 12.6037C168.648 11.4603 168.473 10.3948 168.097 9.43323C167.721 8.47169 167.22 7.64009 166.543 6.93843C165.867 6.23677 165.09 5.69103 164.163 5.30122C163.235 4.9114 162.233 4.72949 161.131 4.72949C160.028 4.72949 159.001 4.9114 158.073 5.30122C157.146 5.69103 156.369 6.23677 155.693 6.93843C155.041 7.64009 154.515 8.47169 154.139 9.43323C153.763 10.3948 153.588 11.4343 153.588 12.6037C153.588 13.7472 153.763 14.8126 154.139 15.7742C154.515 16.7357 155.041 17.5673 155.693 18.269ZM155.918 10.2129C156.194 9.48521 156.595 8.83552 157.096 8.28978C157.597 7.74404 158.199 7.32824 158.875 7.01639C159.552 6.70454 160.329 6.57461 161.131 6.57461C161.957 6.57461 162.709 6.73053 163.386 7.01639C164.062 7.32824 164.664 7.74404 165.165 8.28978C165.666 8.83552 166.067 9.45922 166.343 10.2129C166.618 10.9405 166.744 11.7461 166.744 12.5777C166.744 13.4353 166.618 14.2149 166.343 14.9426C166.067 15.6702 165.691 16.3199 165.165 16.8657C164.664 17.4114 164.062 17.8272 163.386 18.1391C162.709 18.4509 161.932 18.6068 161.131 18.6068C160.304 18.6068 159.552 18.4509 158.875 18.1391C158.199 17.8272 157.597 17.4114 157.096 16.8657C156.595 16.3199 156.219 15.6962 155.918 14.9426C155.643 14.2149 155.492 13.4093 155.492 12.5777C155.517 11.7461 155.643 10.9665 155.918 10.2129Z" fill="white"/>
<path d="M182.055 19.2566C182.055 19.5425 182.155 19.7764 182.33 19.9843C182.531 20.1922 182.756 20.2701 183.032 20.2701C183.333 20.2701 183.558 20.1662 183.734 19.9843C183.909 19.7764 184.009 19.5425 184.009 19.2566V5.95101C184.009 5.63916 183.909 5.40528 183.734 5.22336C183.558 5.04145 183.308 4.9375 183.032 4.9375C182.731 4.9375 182.481 5.06744 182.28 5.30133L173.184 17.0997V5.95101C173.184 5.63916 173.108 5.40528 172.933 5.22336C172.758 5.04145 172.532 4.9375 172.231 4.9375C171.956 4.9375 171.705 5.04145 171.505 5.22336C171.304 5.40528 171.204 5.66515 171.204 5.95101V19.2566C171.204 19.5425 171.304 19.7764 171.505 19.9843C171.705 20.1922 171.956 20.2701 172.231 20.2701C172.382 20.2701 172.507 20.2441 172.657 20.1662C172.808 20.0882 172.908 20.0103 173.008 19.9063L182.055 8.10798V19.2566V19.2566Z" fill="white"/>
<path d="M110.666 4.18311C108.868 4.23563 107.248 4.70835 105.83 5.60127C104.411 6.46792 103.297 7.67598 102.487 9.17293C101.702 10.6699 101.322 12.3507 101.373 14.2415C101.448 16.8415 102.259 18.9687 103.854 20.6495C104.133 20.9384 104.462 21.0435 104.791 20.9909C105.146 20.9384 105.45 20.7546 105.703 20.4394C105.931 20.1505 106.007 19.8354 105.981 19.494C105.931 19.1526 105.779 18.8374 105.526 18.5223C105.044 17.9708 104.69 17.3405 104.437 16.6051C104.183 15.8961 104.057 15.0819 104.032 14.1628C104.006 12.8234 104.259 11.6416 104.842 10.5911C105.399 9.5406 106.209 8.72647 107.222 8.12244C108.261 7.51841 109.426 7.20326 110.768 7.177C112.135 7.12447 113.351 7.3871 114.389 7.88608C115.427 8.41132 116.263 9.14667 116.896 10.1184C117.529 11.0901 117.858 12.2193 117.884 13.5062C117.934 15.4759 117.276 17.1304 115.908 18.496C115.63 18.7586 115.453 19.0738 115.377 19.4415C115.326 19.8091 115.402 20.1243 115.605 20.3869C115.858 20.7283 116.162 20.9384 116.491 21.0172C116.82 21.096 117.149 20.9909 117.453 20.6758C118.517 19.7303 119.277 18.6273 119.783 17.393C120.29 16.1587 120.517 14.8456 120.492 13.4011C120.441 11.5365 119.986 9.93453 119.099 8.54264C118.264 7.12447 117.073 6.04772 115.605 5.28612C114.237 4.55078 112.718 4.18311 111.021 4.18311C110.894 4.18311 110.793 4.18311 110.666 4.18311Z" fill="white"/>
<path d="M86.7308 4.15771C84.9328 4.21023 83.3121 4.68295 81.894 5.57587C80.4758 6.44252 79.3616 7.65059 78.5512 9.14753C77.7662 10.6445 77.3863 12.3253 77.4369 14.2161C77.5129 16.8161 78.3233 18.9433 79.9187 20.6241C80.1973 20.913 80.5265 21.0181 80.8557 20.9655C81.2102 20.913 81.5141 20.7292 81.7673 20.414C81.9953 20.1251 82.0712 19.81 82.0459 19.4686C81.9953 19.1272 81.8433 18.812 81.5901 18.4969C81.1089 17.9454 80.7544 17.3151 80.5011 16.5797C80.2479 15.8707 80.1213 15.0565 80.096 14.1374C80.0706 12.798 80.3239 11.6162 80.9063 10.5657C81.4635 9.5152 82.2738 8.70107 83.2868 8.09704C84.3251 7.49301 85.49 7.17786 86.8321 7.1516C88.1996 7.09908 89.4152 7.3617 90.4535 7.86068C91.4917 8.38593 92.3274 9.12127 92.9605 10.093C93.5936 11.0647 93.9228 12.194 93.9482 13.4808C93.9988 15.4505 93.3404 17.105 91.9729 18.4706C91.6943 18.7332 91.5171 19.0484 91.4411 19.4161C91.3904 19.7837 91.4664 20.0989 91.669 20.3615C91.9223 20.7029 92.2261 20.913 92.5554 20.9918C92.8846 21.0706 93.2138 20.9655 93.5177 20.6504C94.5813 19.7049 95.341 18.6019 95.8475 17.3676C96.3539 16.1333 96.5819 14.8202 96.5565 13.3758C96.5059 11.5111 96.0501 9.90914 95.1637 8.51724C94.328 7.09908 93.1378 6.02233 91.669 5.26072C90.3015 4.52538 88.7821 4.15771 87.0854 4.15771C86.9588 4.15771 86.8575 4.15771 86.7308 4.15771Z" fill="white"/>
<path d="M98.7597 4.18311C96.9617 4.23563 95.3409 4.70835 93.9228 5.60127C92.5047 6.46792 91.3904 7.67598 90.58 9.17293C89.795 10.6699 89.4151 12.3507 89.4658 14.2415C89.5417 16.8415 90.3521 18.9687 91.9475 20.6495C92.2261 20.9384 92.5553 21.0435 92.8845 20.9909C93.239 20.9384 93.5429 20.7546 93.7962 20.4394C94.0241 20.1505 94.1001 19.8354 94.0747 19.494C94.0241 19.1526 93.8721 18.8374 93.6189 18.5223C93.1378 17.9708 92.7832 17.3405 92.53 16.6051C92.2767 15.8961 92.1501 15.0819 92.1248 14.1628C92.0995 12.8234 92.3527 11.6416 92.9352 10.5911C93.4923 9.5406 94.3027 8.72647 95.3156 8.12244C96.3539 7.51841 97.5188 7.20326 98.861 7.177C100.228 7.12447 101.444 7.3871 102.482 7.88608C103.521 8.41132 104.356 9.14667 104.989 10.1184C105.622 11.0901 105.952 12.2193 105.977 13.5062C106.028 15.4759 105.369 17.1304 104.002 18.496C103.723 18.7586 103.546 19.0738 103.47 19.4415C103.419 19.8091 103.495 20.1243 103.698 20.3869C103.951 20.7283 104.255 20.9384 104.584 21.0172C104.913 21.096 105.243 20.9909 105.546 20.6758C106.61 19.7303 107.37 18.6273 107.876 17.393C108.383 16.1587 108.611 14.8456 108.585 13.4011C108.535 11.5365 108.079 9.93453 107.193 8.54264C106.357 7.12447 105.167 6.04772 103.698 5.28612C102.33 4.55078 100.811 4.18311 99.1142 4.18311C98.9876 4.18311 98.8863 4.18311 98.7597 4.18311Z" fill="white"/>
</svg>
